<?xml version="1.0" encoding="UTF-8" standalone="no"?>
<svg
   xmlns:dc="http://purl.org/dc/elements/1.1/"
   xmlns:cc="http://creativecommons.org/ns#"
   xmlns:rdf="http://www.w3.org/1999/02/22-rdf-syntax-ns#"
   xmlns:svg="http://www.w3.org/2000/svg"
   xmlns="http://www.w3.org/2000/svg"
   version="1.1"
   id="svg4170"
   viewBox="0 0 283.4644 230.31495"
   height="65mm"
   width="80mm">
  <defs
     id="defs4172" />
  <metadata
     id="metadata4175">
    <rdf:RDF>
      <cc:Work
         rdf:about="">
        <dc:format>image/svg+xml</dc:format>
        <dc:type
           rdf:resource="http://purl.org/dc/dcmitype/StillImage" />
        <dc:title></dc:title>
      </cc:Work>
    </rdf:RDF>
  </metadata>
  <g
     transform="translate(0,-822.04732)"
     id="layer1">
    <path
       id="path4157"
       d="m 19.974554,1046.0311 c -8.00315,-2.3034 -14.8888196,-9.3095 -17.0553096,-17.3537 -1.1697,-4.3431 -1.60426,-128.50008 -0.44976,-128.50008 0.35128,0 3.61378,2.40392 7.25,5.34205 3.6362296,2.93813 18.9863196,13.81661 34.1113196,24.17441 15.125,10.3578 36.275,25.11673 47,32.79762 31.439436,22.51588 44.662536,27.5295 61.227836,23.21479 9.9554,-2.59306 19.7333,-8.24313 43.8301,-25.32703 12.9569,-9.18601 33.8442,-23.67684 46.4163,-32.20184 12.5721,-8.525 26.3636,-18.3125 30.6477,-21.75 4.2842,-3.4375 8.047,-6.25 8.3618,-6.25 0.3148,0 0.4472,29.1375 0.2943,64.75 -0.3118,72.61588 0.2385,67.35438 -7.8673,75.22078 -7.7007,7.4733 0.536,7.0398 -131.8389,6.9391 -72.989956,-0.055 -119.862056,-0.4615 -121.928086,-1.0561 z M 133.33084,965.35561 c -6.2113,-2.32217 -12.762,-6.30928 -27.5,-16.73815 C 99.505844,944.14181 79.255804,930.01224 60.830804,917.21843 21.663824,890.02195 20.430674,889.06262 13.418404,880.33372 6.7817244,872.07235 2.8878844,864.45491 2.1600144,858.30914 0.84628441,847.21675 6.3959844,834.90097 14.830804,830.19042 l 4.5,-2.5131 120.444236,-0.26585 c 134.5669,-0.29702 126.2237,-0.71901 133.9456,6.77489 6.3859,6.19726 7.6073,9.25547 7.6069,19.04654 -4e-4,7.86491 -0.302,9.16587 -3.7367,16.11544 -6.4699,13.091 -12.8669,18.87207 -47.4426,42.87463 -16.9496,11.76645 -39.3451,27.38592 -49.7678,34.70994 -10.4228,7.32402 -21.7101,14.67495 -25.0829,16.33541 -7.9439,3.91075 -15.236,4.60365 -21.9667,2.08729 z"
       style="fill:#030303" />
  </g>
</svg>
