<?xml version="1.0" encoding="UTF-8" standalone="no"?>
<svg
   xmlns:dc="http://purl.org/dc/elements/1.1/"
   xmlns:cc="http://creativecommons.org/ns#"
   xmlns:rdf="http://www.w3.org/1999/02/22-rdf-syntax-ns#"
   xmlns:svg="http://www.w3.org/2000/svg"
   xmlns="http://www.w3.org/2000/svg"
   version="1.1"
   id="svg5317"
   viewBox="0 0 187.79531 233.85818"
   height="66mm"
   width="53mm">
  <defs
     id="defs5319" />
  <metadata
     id="metadata5322">
    <rdf:RDF>
      <cc:Work
         rdf:about="">
        <dc:format>image/svg+xml</dc:format>
        <dc:type
           rdf:resource="http://purl.org/dc/dcmitype/StillImage" />
        <dc:title></dc:title>
      </cc:Work>
    </rdf:RDF>
  </metadata>
  <g
     transform="translate(0,-818.50411)"
     id="layer1">
    <path
       id="path5304"
       d="m 12.015081,1043.267 c -1.85889,-0.9905 -4.4440794,-3.5591 -5.7448791,-5.7081 l -2.36508,-3.9072 -0.005,-48.28974 c -0.005,-46.40041 0.0735,-48.44398 2.00469,-52.22939 2.3179997,-4.54365 6.5732691,-7.14082 12.9901891,-7.92844 l 4.5,-0.55234 0.56532,-21.5 c 0.54226,-20.6231 0.68849,-21.85148 3.58528,-30.11775 7.24367,-20.67047 23.91714,-37.21847 44.859,-44.52145 7.23555,-2.52322 9.26574,-2.78434 21.4904,-2.76398 11.948829,0.0199 14.434209,0.33226 21.630519,2.71859 20.28154,6.72544 38.38841,24.85598 45.04731,45.10618 2.43288,7.39856 2.70549,9.88778 3.23931,29.57841 l 0.58286,21.5 5.18032,0.63229 c 6.15207,0.7509 10.4693,3.55591 12.69639,8.24916 1.42819,3.00968 1.62329,9.23367 1.62329,51.78529 0,54.49557 0.18412,53.10167 -7.6041,57.56677 l -3.8959,2.2335 -78.499999,-0.026 c -73.66072,-0.024 -78.70835,-0.1365 -81.87979,-1.8263 z M 133.66951,907.16225 c 0.32053,-20.41188 -1.08641,-27.04588 -7.52603,-35.48656 -8.44229,-11.06567 -18.39385,-16.00447 -32.248609,-16.00447 -13.86615,0 -23.87037,4.97003 -32.21557,16.00447 -6.25107,8.26547 -7.05652,11.70964 -7.54318,32.25509 -0.23814,10.05345 -0.17695,18.94618 0.13596,19.76163 0.49179,1.28159 5.8952,1.44716 39.84587,1.22101 l 39.276919,-0.26163 0.27464,-17.48954 z"
       style="fill:#040404" />
  </g>
</svg>
