<?xml version="1.0" encoding="UTF-8" standalone="no"?>
<!-- Created with Inkscape (http://www.inkscape.org/) -->

<svg
   xmlns:dc="http://purl.org/dc/elements/1.1/"
   xmlns:cc="http://creativecommons.org/ns#"
   xmlns:rdf="http://www.w3.org/1999/02/22-rdf-syntax-ns#"
   xmlns:svg="http://www.w3.org/2000/svg"
   xmlns="http://www.w3.org/2000/svg"
   version="1.1"
   width="235"
   height="235"
   id="svg5018">
  <defs
     id="defs5020">
    <filter
       color-interpolation-filters="sRGB"
       id="filter4853">
      <feGaussianBlur
         id="feGaussianBlur4855"
         stdDeviation="5.4550434" />
    </filter>
  </defs>
  <metadata
     id="metadata5023">
    <rdf:RDF>
      <cc:Work
         rdf:about="">
        <dc:format>image/svg+xml</dc:format>
        <dc:type
           rdf:resource="http://purl.org/dc/dcmitype/StillImage" />
        <dc:title></dc:title>
      </cc:Work>
    </rdf:RDF>
  </metadata>
  <g
     transform="translate(0,-817.35738)"
     id="layer1">
    <g
       transform="translate(-1.0714295,-1.7905183)"
       id="g5067">
      <path
         d="m 429.68507,389.87131 a 109.10087,109.10087 0 1 1 -218.20174,0 109.10087,109.10087 0 1 1 218.20174,0 z"
         transform="matrix(0.82509313,0,0,0.82509313,-142.1414,618.34038)"
         id="path4559-9"
         style="fill:none;stroke:#ffffff;stroke-width:12.11984444;stroke-miterlimit:4;stroke-opacity:1;stroke-dasharray:none;stroke-dashoffset:0;marker-mid:none;display:inline" />
      <path
         d="m 429.68507,389.87131 a 109.10087,109.10087 0 1 1 -218.20174,0 109.10087,109.10087 0 1 1 218.20174,0 z"
         transform="matrix(0.82509313,0,0,0.82509313,-142.14141,618.34038)"
         id="path4559-9-4"
         style="fill:none;stroke:#ffffff;stroke-width:12.11984444;stroke-miterlimit:4;stroke-opacity:1;stroke-dasharray:none;stroke-dashoffset:0;marker-mid:none;display:inline;filter:url(#filter4853)" />
      <path
         d="m 271.31924,292.52675 a 109.10087,109.10087 0 1 1 58.16512,206.08179"
         transform="matrix(0.58834209,0,0,0.58834209,-66.242753,710.64282)"
         id="path4559-9-2-6"
         style="fill:none;stroke:#000000;stroke-width:20.39629745;stroke-miterlimit:4;stroke-opacity:0.38075316;stroke-dasharray:none;stroke-dashoffset:0;marker-mid:none;display:inline" />
      <path
         d="m 239.42593,316.9581 a 109.10087,109.10087 0 0 1 21.32595,-18.31778"
         transform="matrix(0.58834209,0,0,0.58834209,-66.242753,710.64282)"
         id="path4559-9-2-6-4"
         style="fill:none;stroke:#ffffff;stroke-width:13.59753132;stroke-miterlimit:4;stroke-opacity:0.70292885;stroke-dasharray:none;stroke-dashoffset:0;marker-mid:none;display:inline" />
      <path
         d="M 275.35155,489.15377 A 109.10087,109.10087 0 0 1 217.57787,353.91723"
         transform="matrix(0.58834209,0,0,0.58834209,-66.242753,710.64282)"
         id="path4559-9-2-6-8"
         style="fill:none;stroke:#ffffff;stroke-width:27.19506264;stroke-miterlimit:4;stroke-opacity:0.38075316;stroke-dasharray:none;stroke-dashoffset:0;marker-mid:none;display:inline" />
      <path
         d="M 377.54399,482.92281 A 109.10087,109.10087 0 0 1 222.60517,341.88058"
         transform="matrix(0.92147971,0,0,0.92147971,-173.04141,580.76202)"
         id="path4559-9-4-2"
         style="fill:none;stroke:#000000;stroke-width:3.25563335;stroke-miterlimit:4;stroke-opacity:0.32217575;stroke-dasharray:none;stroke-dashoffset:0;marker-mid:none;display:inline" />
      <path
         d="m 252.70696,304.45655 a 109.10087,109.10087 0 0 1 148.19629,11.57812"
         transform="matrix(0.92147971,0,0,0.92147971,-173.04141,580.76203)"
         id="path4559-9-4-2-5"
         style="fill:none;stroke:#000000;stroke-width:3.25563335;stroke-miterlimit:4;stroke-opacity:0.32217575;stroke-dasharray:none;stroke-dashoffset:0;marker-mid:none;display:inline" />
      <path
         d="M 412.31412,330.80676 A 109.10087,109.10087 0 0 1 291.25528,494.9561"
         transform="matrix(0.97895279,0,0,0.97895279,-191.46638,558.35492)"
         id="path4559-9-4-0"
         style="fill:none;stroke:#000000;stroke-width:8.17199802;stroke-miterlimit:4;stroke-opacity:0.19665276;stroke-dasharray:none;stroke-dashoffset:0;marker-mid:none;display:inline" />
      <path
         d="M 426.11183,417.5646 A 109.10087,109.10087 0 0 1 235.84002,458.58393"
         transform="matrix(0.40910896,0,0,0.40910896,-8.7834531,780.52068)"
         id="path4559-9-4-1"
         style="fill:none;stroke:#000000;stroke-width:21.99902916;stroke-miterlimit:4;stroke-opacity:0.41176471;stroke-dasharray:none;stroke-dashoffset:0;marker-mid:none;display:inline" />
      <path
         d="m 424.30117,356.02181 a 109.10087,109.10087 0 0 1 5.12654,41.33879"
         transform="matrix(0.40910896,0,0,0.40910896,-8.7834531,780.52068)"
         id="path4559-9-4-1-7"
         style="fill:none;stroke:#000000;stroke-width:21.99902916;stroke-miterlimit:4;stroke-opacity:0.41176471;stroke-dasharray:none;stroke-dashoffset:0;marker-mid:none;display:inline" />
      <path
         d="m 366.55163,290.92691 a 109.10087,109.10087 0 0 1 50.90351,48.75455"
         transform="matrix(0.40910896,0,0,0.40910896,-8.7834531,780.52068)"
         id="path4559-9-4-1-7-4"
         style="fill:none;stroke:#000000;stroke-width:31.77637482;stroke-miterlimit:4;stroke-opacity:0.41176471;stroke-dasharray:none;stroke-dashoffset:0;marker-mid:none;display:inline" />
      <path
         d="m 316.66143,280.84098 a 109.10087,109.10087 0 0 1 34.79706,4.38914"
         transform="matrix(0.40910896,0,0,0.40910896,-8.7834531,780.52068)"
         id="path4559-9-4-1-7-9"
         style="fill:none;stroke:#000000;stroke-width:21.99902916;stroke-miterlimit:4;stroke-opacity:0.41176471;stroke-dasharray:none;stroke-dashoffset:0;marker-mid:none;display:inline" />
      <path
         d="m 216.9665,355.71913 a 109.10087,109.10087 0 0 1 11.53782,-24.3653"
         transform="matrix(0.40910896,0,0,0.40910896,-8.7834531,780.52068)"
         id="path4559-9-4-1-7-9-6"
         style="fill:none;stroke:#000000;stroke-width:36.66505051;stroke-miterlimit:4;stroke-opacity:0.41176471;stroke-dasharray:none;stroke-dashoffset:0;marker-mid:none;display:inline" />
      <path
         d="m 232.2613,325.82394 a 109.10087,109.10087 0 0 1 13.06071,-14.93746"
         transform="matrix(0.40910896,0,0,0.40910896,-8.7834531,780.52068)"
         id="path4559-9-4-1-7-9-6-9"
         style="fill:none;stroke:#000000;stroke-width:14.66601944;stroke-miterlimit:4;stroke-opacity:0.41176471;stroke-dasharray:none;stroke-dashoffset:0;marker-mid:none;display:inline" />
      <path
         d="m 211.49897,391.71849 a 109.10087,109.10087 0 0 1 1.52506,-20.11766"
         transform="matrix(0.40910896,0,0,0.40910896,-8.7834531,780.52068)"
         id="path4559-9-4-1-7-9-6-9-5"
         style="fill:none;stroke:#000000;stroke-width:14.66601944;stroke-miterlimit:4;stroke-opacity:0.41176471;stroke-dasharray:none;stroke-dashoffset:0;marker-mid:none;display:inline" />
      <path
         d="M 220.2717,432.77121 A 109.10087,109.10087 0 0 1 307.28498,281.58405"
         transform="matrix(1.0280122,0,0,1.0280122,-207.19406,539.22805)"
         id="path4559-9-4-6"
         style="fill:none;stroke:#000000;stroke-width:12.11984444;stroke-miterlimit:4;stroke-opacity:0.27196655;stroke-dasharray:none;stroke-dashoffset:0;marker-mid:none;display:inline" />
    </g>
  </g>
</svg>
